<?xml version="1.0" encoding="utf-8"?>
<!-- Generator: Adobe Illustrator 13.0.0, SVG Export Plug-In . SVG Version: 6.00 Build 14576)  -->
<!DOCTYPE svg PUBLIC "-//W3C//DTD SVG 1.1//EN" "http://www.w3.org/Graphics/SVG/1.1/DTD/svg11.dtd">
<svg version="1.1" id="Layer_2_copy" xmlns="http://www.w3.org/2000/svg" xmlns:xlink="http://www.w3.org/1999/xlink" x="0px"
	 y="0px" width="346.85px" height="372.836px" viewBox="0 0 346.85 372.836" enable-background="new 0 0 346.85 372.836"
	 xml:space="preserve">
<g>
	<path d="M217.347,249.436c2.092,0,3.786,0.991,3.786,2.213c0,1.224-1.694,2.215-3.786,2.215h-87.088
		c-2.092,0-3.787-0.991-3.787-2.215c0-1.222,1.695-2.213,3.787-2.213H217.347 M217.347,243.436h-87.088
		c-5.58,0-9.787,3.53-9.787,8.213c0,4.684,4.208,8.215,9.787,8.215h87.088c5.578,0,9.786-3.531,9.786-8.215
		C227.133,246.966,222.925,243.436,217.347,243.436L217.347,243.436z"/>
</g>
<g>
	<path  d="M217.347,280.417c2.092,0,3.786,0.991,3.786,2.213c0,1.224-1.694,2.214-3.786,2.214h-87.088
		c-2.092,0-3.787-0.99-3.787-2.214c0-1.222,1.695-2.213,3.787-2.213H217.347 M217.347,274.417h-87.088
		c-5.58,0-9.787,3.53-9.787,8.213s4.208,8.214,9.787,8.214h87.088c5.578,0,9.786-3.531,9.786-8.214S222.925,274.417,217.347,274.417
		L217.347,274.417z"/>
</g>
<path fill="#F7BA00" stroke="#000000" stroke-width="6" d="M226.751,267.139c0,5.514-5.6,9.982-12.505,9.982h-80.888
	c-6.906,0-12.505-4.471-12.505-9.982l0,0c0-5.516,5.599-9.984,12.505-9.984h80.888C221.153,257.154,226.751,261.624,226.751,267.139
	L226.751,267.139z"/>
<path fill="#f5d216" stroke="#000000" stroke-width="6" d="M138.811,288.07c-0.255,0.406-0.504,0.816-0.781,1.214
	c-11.416,16.377-49.65,7.444-28.31-28.286c-36.066-4.747-45.65,29.279-35.228,47.641c11.453,23.411,61.479,30.428,80.41-2.978
	c2.924-5.161,4.899-11.17,6.144-17.591H138.811z M110.24,222.289c11.402,5.995,20.278,14.603,26.009,24.044h24.517
	c-10.75-63.996-59.869-95.898-106.606-90.543c-53.284,6.105-81.882,90.319,0.496,110.666
	C41.256,241.643,62.099,196.979,110.24,222.289z"/>
<path fill="#916D00" stroke="#000000" stroke-width="6" d="M186.669,300.936c-0.537-4.388-0.93-8.675-1.193-12.865H161.97
	c-0.259,4.539-0.657,9.177-1.239,13.938c-12.647,8.146-7.717,25.725-23.735,36.234c10.062,0.265,18.271-1.708,20.92-5.415
	c0,10.75,9.617,19.812,15.886,32.858c5.824-13.119,15.208-24.095,15.208-32.858c2.648,3.707,10.857,5.68,20.921,5.415
	C195.243,329.232,201.032,312.727,186.669,300.936z M216.771,94.487c-6.494-13.488-35.922-68.015-43.417-86.502
	c-7.494,18.486-36.702,73.013-43.198,86.503c-5.728,11.893-17.488,38.472-2.998,65.452c10.178,18.952,26.798,47.126,32.854,86.278
	h27.147c5.805-39.28,22.357-67.189,32.609-86.279C234.258,132.959,222.497,106.38,216.771,94.487z"/>
<path fill="#f5d216" stroke="#000000" stroke-width="6" d="M292.69,155.79c-46.71-5.352-95.797,26.509-106.587,90.428h24.567
	c5.734-9.396,14.583-17.958,25.939-23.929c48.14-25.311,68.982,19.354,55.584,44.167C374.573,246.109,345.974,161.895,292.69,155.79
	z M237.13,260.998c21.34,35.73-16.895,44.663-28.311,28.286c-0.277-0.397-0.525-0.808-0.781-1.214h-22.233
	c1.244,6.421,3.22,12.43,6.144,17.591c18.931,33.405,68.957,26.389,80.41,2.978C282.78,290.277,273.196,256.251,237.13,260.998z"/>
</svg>
